/* XPM */
static char *stuck_focus[] = {
/* columns rows colors chars-per-pixel */
"25 32 13 1 ",
"  c gray16",
". c #343434",
"X c #353535",
"o c gray21",
"O c #373737",
"+ c gray22",
"@ c #393939",
"# c #3A3A3A",
"$ c gray23",
"% c #3C3C3C",
"& c gray24",
"* c gray37",
"= c #EEEEEC",
/* pixels */
"*************************",
"&&&&&&&&&&&&&&&&&&&&&&&&&",
"&&&&&&&&&&&&&&&&&&&&&&&&&",
"$$$$$$$$$$$$$$$$$$$$$$$$$",
"$$$$$$$$$$$$$$$$$$$$$$$$$",
"$$$$$$$$$$$$$$$$$$$$$$$$$",
"$$$$$$$$$$$$$$$$$$$$$$$$$",
"$$$$$$$$$$$$$$$$$$$$$$$$$",
"$$$$$$$$$$$$$$$$$$$$$$$$$",
"$$$$$$$$$$$$$$$$$$$$$$$$$",
"$$OOOO$$$$$OOOOO$O$$OOOOO",
"$$OOOO$$$$$===OO$$$$OOOOO",
"$OOO$$$$$$$===$$$$$$$$$$O",
"OOOOOOOOOOO = OOOOOOOOOOO",
"OOOOOOOO== O O ==OOOOOOOO",
"OOOOOOOO=== O ===OOOOOOOO",
"OOOOOOOO== O O ==OOOOOOOO",
"OOOOOOOOOOO = OOOOOOOOOOO",
"OOOOOOOOOOO===OOOOOOOOOOO",
"OOOOOOOOOOO===OOOOOOOOOOO",
"OOOOOOOOOOOOOOOOOOOOOOOOO",
"OOOOOOOOOOOOOOOOOOOOOOOOO",
"OOOOOOOOOOOOOOOOOOOOOOOOO",
"OOOOOOOOOOOOOOOOOOOOOOOOO",
"OOOOOOOOOOOOOOOOOOOOOOOOO",
"OOOOOOOOOOOOOOOOOOOOOOOOO",
"....OOOO....OOOO....OOOO.",
"....OOOO....OOOO....OOOO.",
"..OO...O..OO...O..OO...O.",
"..OO......OO......OO.....",
".OOO.....OOO.....OOO.....",
"..OO......OO......OO....."
};
