/* XPM */
static char *menuitem[] = {
/* columns rows colors chars-per-pixel */
"15 25 2 1 ",
"  c #2F2F2F",
". c #343434",
/* pixels */
"               ",
"...............",
"...............",
"...............",
"...............",
"...............",
"...............",
"...............",
"...............",
"...............",
"...............",
"...............",
"...............",
"...............",
"...............",
"...............",
"...............",
"...............",
"...............",
"...............",
"...............",
"...............",
"...............",
"...............",
"               "
};
