/* XPM */
static char *shade_pressed[] = {
/* columns rows colors chars-per-pixel */
"25 32 14 1 ",
"  c gray16",
". c #2A2A2A",
"X c #343434",
"o c #353535",
"O c gray21",
"+ c #373737",
"@ c gray22",
"# c #393939",
"$ c #3A3A3A",
"% c gray23",
"& c #3C3C3C",
"* c gray24",
"= c gray37",
"- c #215D9C",
/* pixels */
"=========================",
"*************************",
"*************************",
"%%%%%%%%%%%%%%%%%%%%%%%%%",
"%%%%%%%%%%%%%%%%%%%%%%%%%",
"%%%%%%%%%%%%%%%%%%%%%%%%%",
"%%%%%%%%%%%%%%%%%%%%%%%%%",
"%%%%%%%%%%%%%%%%%%%%%%%%%",
"%%%%%%%%%%%%%%%%%%%%%%%%%",
"%%%%%%%%%%%%%%%%%%%%%%%%%",
"%%++++%%%%%+++++%+%%+++++",
"%%++++%%%%%%++++%%%%+++++",
"%+++%%%%%%%% %%%%%%%%%%%+",
"+++++++++++ - +++++++++++",
"++++++++++ --- ++++++++++",
"+++++++++ ----- +++++++++",
"++++++++ --- --- ++++++++",
"++++++++--- + ---++++++++",
"++++++++-- +++ --++++++++",
"+++++++++++++++++++++++++",
"+++++++++++++++++++++++++",
"+++++++++++++++++++++++++",
"+++++++++++++++++++++++++",
"+++++++++++++++++++++++++",
"+++++++++++++++++++++++++",
"+++++++++++++++++++++++++",
"XXXX++++XXXX++++XXXX++++X",
"XXXX++++XXXX++++XXXX++++X",
"XX++XXX+XX++XXX+XX++XXX+X",
"XX++XXXXXX++XXXXXX++XXXXX",
"X+++XXXXX+++XXXXX+++XXXXX",
"XX++XXXXXX++XXXXXX++XXXXX"
};
