/* XPM */
static char *menu_checkbox_checked_insensitive[] = {
/* columns rows colors chars-per-pixel */
"13 13 2 1 ",
"  c None",
". c gray42",
/* pixels */
"  .........  ",
" .         . ",
".           .",
".        .. .",
".        .. .",
".       ..  .",
".      ..   .",
". ..  ...   .",
". ... ..    .",
".  ....     .",
".   ...     .",
" .   .     . ",
"  .........  "
};
