/* XPM */
static char *menu_checkbox_unchecked[] = {
/* columns rows colors chars-per-pixel */
"13 13 2 1 ",
"  c None",
". c #EEEEEC",
/* pixels */
" ..........  ",
"..         . ",
".           .",
".           .",
".           .",
".           .",
".           .",
".           .",
".           .",
".           .",
".           .",
"..         . ",
"  .........  "
};
